<svg width="16" height="14" viewBox="0 0 16 14" fill="none" xmlns="http://www.w3.org/2000/svg">
<path d="M7.77236 14C7.65926 14.0007 7.54715 13.9789 7.44256 13.9359C7.33797 13.8928 7.24298 13.8294 7.16312 13.7493L1.35792 7.93978C0.836175 7.41673 0.446557 6.77689 0.221342 6.07327C-0.00387281 5.36965 -0.0582026 4.62249 0.0628531 3.89369C0.183909 3.16489 0.476866 2.47542 0.917458 1.88239C1.35805 1.28936 1.9336 0.809835 2.59642 0.483543C3.4325 0.0658593 4.37622 -0.0864493 5.30124 0.047008C6.22626 0.180465 7.08844 0.593319 7.77236 1.2303C8.45627 0.593319 9.31845 0.180465 10.2435 0.047008C11.1685 -0.0864493 12.1122 0.0658593 12.9483 0.483543C13.6111 0.809835 14.1867 1.28936 14.6273 1.88239C15.0679 2.47542 15.3608 3.16489 15.4819 3.89369C15.6029 4.62249 15.5486 5.36965 15.3234 6.07327C15.0982 6.77689 14.7085 7.41673 14.1868 7.93978L8.37638 13.7493C8.29714 13.8288 8.20299 13.8918 8.09934 13.9348C7.9957 13.9779 7.88458 14 7.77236 14ZM4.59995 0.875198C4.04224 0.871592 3.49182 1.00203 2.99504 1.25554C2.44878 1.52649 1.97512 1.92397 1.61347 2.4149C1.25182 2.90584 1.01262 3.47604 0.915789 4.07806C0.825475 4.66419 0.874117 5.26334 1.0578 5.82723C1.24147 6.39111 1.55505 6.90396 1.97326 7.32445L7.7828 13.134L13.5715 7.32445C13.9897 6.90396 14.3032 6.39111 14.4869 5.82723C14.6706 5.26334 14.7192 4.66419 14.6289 4.07806C14.5321 3.47604 14.2929 2.90584 13.9312 2.4149C13.5696 1.92397 13.0959 1.52649 12.5497 1.25554C11.8415 0.913645 11.0442 0.801329 10.2691 0.93426C9.49394 1.06719 8.77964 1.43874 8.22581 1.99707C8.10475 2.11582 7.94194 2.18234 7.77236 2.18234C7.60278 2.18234 7.43997 2.11582 7.31891 1.99707C6.59432 1.28172 5.61816 0.878942 4.59995 0.875198Z" fill="black"/>
</svg>
