<svg width="15" height="14" viewBox="0 0 15 14" fill="none" xmlns="http://www.w3.org/2000/svg">
<path d="M13.7588 1.32048C13.3643 0.900826 12.8945 0.567954 12.3766 0.341254C11.8587 0.114554 11.3031 -0.00144499 10.7422 1.3586e-05C10.1813 -0.00144499 9.62573 0.114554 9.10783 0.341254C8.58994 0.567954 8.12008 0.900826 7.72563 1.32048L7.48499 1.58277L7.24435 1.32953C6.44655 0.490038 5.36455 0.0184252 4.23636 0.0184252C3.10816 0.0184252 2.02616 0.490038 1.22837 1.32953C0.441015 2.17485 0 3.31135 0 4.49503C0 5.67872 0.441015 6.81522 1.22837 7.66054L7.04668 13.8016C7.16754 13.9286 7.33136 14 7.50218 14C7.67299 14 7.83681 13.9286 7.95767 13.8016L13.776 7.66054C14.5636 6.81245 15.0032 5.67269 15 4.48681C14.9968 3.30093 14.551 2.16383 13.7588 1.32048Z" fill="black"/>
</svg>
