<svg width="17" height="18" viewBox="0 0 17 18" fill="none" xmlns="http://www.w3.org/2000/svg">
<path d="M16.2674 17.5L9.76958 11.003C9.25075 11.445 8.65409 11.787 7.97961 12.0291C7.30513 12.2712 6.6272 12.3922 5.9458 12.3922C4.28416 12.3922 2.87778 11.8171 1.72667 10.6668C0.575556 9.51652 0 8.11066 0 6.44922C0 4.78779 0.574864 3.38123 1.72459 2.22957C2.87432 1.07791 4.28001 0.501386 5.94165 0.500002C7.60329 0.498619 9.01036 1.0741 10.1629 2.22646C11.3153 3.37881 11.8916 4.78536 11.8916 6.44611C11.8916 7.16685 11.764 7.86442 11.5087 8.53882C11.2534 9.21322 10.9179 9.79008 10.5022 10.2694L17 16.7654L16.2674 17.5ZM5.94684 11.3536C7.32347 11.3536 8.48565 10.8798 9.43338 9.93223C10.3811 8.98461 10.855 7.82223 10.855 6.44507C10.855 5.06792 10.3811 3.90588 9.43338 2.95896C8.48565 2.01204 7.32347 1.53823 5.94684 1.53754C4.5702 1.53685 3.40768 2.01065 2.45926 2.95896C1.51083 3.90726 1.03697 5.0693 1.03766 6.44507C1.03835 7.82084 1.51222 8.98288 2.45926 9.93119C3.4063 10.8795 4.56848 11.3533 5.9458 11.3526" fill="#2B3D19"/>
</svg>
